<svg width="194" height="202" viewBox="0 0 194 202" fill="none" xmlns="http://www.w3.org/2000/svg">
<g clip-path="url(#clip0_119_404)" filter="url(#filter0_f_119_404)">
<path d="M10.3034 22.611C67.8263 6.05595 130.443 5.90938 188.059 22.1647V20.2634L186.666 19.862C128.619 3.15636 65.3828 3.15636 7.33359 19.862L5.94141 20.2634V87.9599C5.94141 117.275 20.7304 144.857 43.2877 165.103C22.4108 145.143 8.90977 118.717 8.90977 90.7077V23.0111L10.3034 22.611Z" fill="#BCBCBC"/>
<path d="M7.33533 19.8634C65.3832 3.15774 128.619 3.15774 186.668 19.8634L188.059 20.2648V87.9613C188.059 136.738 147.119 180.735 97.5573 194.088L97.001 194.236L96.4476 194.087C46.8812 180.735 5.94173 136.741 5.94173 87.96V20.2634L7.33533 19.8634ZM1.98486 17.69V87.9785C1.98486 138.318 44.0826 183.671 95.3421 197.461L97.0024 197.908L98.6628 197.461C149.919 183.673 192.019 138.316 192.019 87.9785V17.69L187.843 16.4898C129.03 -0.412599 64.9724 -0.412599 6.15997 16.4898L1.98486 17.69Z" fill="url(#paint0_linear_119_404)"/>
<path d="M44.6673 115.601C52.2715 120.233 59.3023 125.414 65.7098 131.164C78.7614 143.628 89.0202 158.619 95.9811 176.332L98.9509 179.082C99.6783 177.963 100.414 176.817 101.156 175.645L102.965 177.32C108.595 172.637 113.721 167.459 118.269 161.858C121.512 157.855 124.69 153.634 127.172 149.132C129.5 144.91 131.075 140.51 131.721 135.952C132.463 130.72 131.908 125.524 130.375 120.558C128.836 115.581 126.15 111.559 123.475 107.429C121.14 103.819 116.815 98.3659 118.728 93.9479C118.807 93.7696 118.885 93.602 118.969 93.4435L116.001 90.6944C115.326 90.2534 114.674 89.7834 114.048 89.2843C114.41 88.9608 114.784 88.6478 115.166 88.3481L115.173 88.3441L115.897 87.7658L116.541 88.4194C120.882 92.8124 127.043 95.5284 133.551 95.5284L142.571 102.508C142.762 102.986 142.804 103.501 142.729 103.976C142.7 104.157 142.639 104.321 142.586 104.495C142.444 104.986 142.435 105.379 142.561 105.858C142.625 106.096 142.703 106.288 142.859 106.49C142.924 106.576 143 106.662 143.084 106.745L146.052 109.494C146.284 109.721 146.583 109.926 146.948 110.074C147.105 110.146 147.281 110.174 147.455 110.152C150.279 109.956 153.102 110.156 155.731 110.929C156.454 111.139 156.989 111.389 157.766 111.304C158.391 111.236 158.728 111.036 158.78 110.393C158.816 109.817 158.638 109.246 158.275 108.776C158.111 108.558 157.913 108.404 157.696 108.229C156.99 107.671 156.284 107.07 155.577 106.468C155.502 106.314 155.413 106.167 155.308 106.028C155.143 105.81 154.945 105.656 154.728 105.482C154.171 105.038 153.624 104.586 153.085 104.124C153.026 103.909 153.016 103.685 153.056 103.467C153.081 103.261 153.16 103.065 153.286 102.894C153.412 102.724 153.582 102.586 153.781 102.491C154.478 102.157 155.25 102.319 156.066 102.504C156.538 102.612 156.989 102.772 157.417 102.977C157.907 103.801 158.243 104.729 158.384 105.706C158.428 106.019 158.409 106.356 158.571 106.638C158.692 106.845 158.887 107.038 159.106 107.194L162.075 109.943C162.365 110.15 162.652 110.255 163.022 110.268C163.311 110.277 163.563 110.22 163.8 110.139C164.212 109.993 164.416 109.819 164.721 109.535C165.594 108.736 166.439 107.912 167.257 107.065C167.831 106.457 168.36 105.938 169.029 105.414C171.275 103.636 173.748 102.118 176.392 100.894C177.214 100.439 177.931 99.6005 178.355 98.6789C178.742 97.8351 179.05 96.4315 179.131 95.506C179.185 94.9589 179.134 94.4073 178.981 93.8766C178.87 93.5056 178.679 93.2058 178.471 92.8784L159.06 62.2954C158.877 62.0036 158.726 61.7541 158.625 61.4279C158.304 60.326 158.312 59.1641 158.649 58.0662C158.837 57.4918 159.013 56.9782 159.051 56.3695C159.135 55.0412 158.752 53.5954 157.866 52.6632L142.488 36.4857L145.218 29.5708C145.458 28.9634 145.222 28.4855 144.821 28.1105L142.141 25.6123C141.899 25.3865 141.598 25.1884 141.141 25.1713C136.692 25.0036 132.658 26.8812 129.911 29.9009L128.157 28.2781C127.077 28.0854 125.973 28.0048 124.876 27.915C75.8173 23.8377 30.5829 54.3995 17.8223 100.834L20.7921 103.583C26.7269 106.024 32.5079 108.773 38.1073 111.818C40.3239 113.028 42.5149 114.29 44.6673 115.601Z" fill="#BCBCBC"/>
<path d="M39.8745 111.759C65.5556 126.926 84.9249 148.2 95.981 176.334C100.625 169.193 105.723 160.889 109.248 152.234C112.844 143.395 114.805 134.175 112.948 125.451C112.588 123.744 112.09 122.064 111.46 120.426C110.828 118.791 110.049 117.208 109.133 115.694C108.924 115.349 108.582 114.804 108.24 114.252C107.049 112.344 105.843 110.415 105.072 108.286V108.28L105.066 108.265C102.988 102.521 104.029 96.0752 107.345 90.9243C107.993 89.9155 108.725 88.9609 109.529 88.0749C110.34 87.1807 111.233 86.3528 112.198 85.6005L112.204 85.5965L112.928 85.0195L113.572 85.6731C117.912 90.066 124.074 92.7821 130.583 92.7821L141.407 101.157C141.546 101.264 141.696 101.373 141.833 101.483C142.622 102.153 142.867 103.129 142.73 103.979C142.702 104.16 142.64 104.324 142.589 104.498C142.446 104.941 142.437 105.413 142.562 105.861C142.626 106.1 142.705 106.291 142.86 106.493C143.147 106.859 143.535 107.148 143.983 107.329C144.139 107.4 144.315 107.427 144.488 107.407C147.312 107.21 150.136 107.411 152.764 108.184C153.485 108.394 154.022 108.644 154.798 108.559C155.424 108.491 155.762 108.291 155.813 107.65C155.848 107.073 155.67 106.503 155.31 106.032C155.143 105.816 154.945 105.661 154.728 105.486C153.435 104.464 152.142 103.294 150.846 102.252C150.29 101.806 149.974 101.487 150.086 100.723C150.111 100.518 150.191 100.322 150.317 100.151C150.443 99.9813 150.613 99.8425 150.811 99.7472C151.51 99.4144 152.281 99.5755 153.097 99.7604C155.877 100.395 157.969 102.837 158.385 105.713C158.429 106.024 158.409 106.362 158.571 106.645C158.692 106.852 158.887 107.044 159.105 107.199C159.395 107.407 159.683 107.511 160.054 107.524C160.342 107.535 160.595 107.478 160.833 107.395C161.244 107.25 161.449 107.075 161.753 106.79C162.626 105.992 163.471 105.168 164.288 104.32C164.861 103.712 165.39 103.193 166.061 102.669C168.307 100.891 170.779 99.3732 173.422 98.1495C174.244 97.694 174.963 96.8555 175.387 95.9339C175.773 95.0901 176.08 93.6866 176.161 92.761C176.216 92.2139 176.165 91.6622 176.011 91.1316C175.9 90.7619 175.71 90.4608 175.502 90.1334L156.09 59.5505C155.909 59.2586 155.758 59.0104 155.658 58.683C155.335 57.5813 155.343 56.419 155.681 55.3212C155.87 54.7482 156.043 54.2332 156.083 53.6245C156.167 52.2962 155.783 50.8504 154.898 49.9182L139.519 33.7407L142.25 26.8258C142.582 25.9808 142.153 25.2123 141.141 25.174C135.906 24.976 131.245 27.6101 128.579 31.6057C127.901 32.6158 127.281 33.7632 126.71 35.0598L126.468 35.613L125.824 35.6302L125.609 35.6355C121.025 35.761 116.459 36.2171 111.953 36.9995C100.883 38.9273 90.3337 42.8579 80.9081 48.5661L80.9052 48.5701L80.8525 48.6018C74.1626 52.6516 68.1011 57.5274 62.8355 63.0944C50.0662 76.5703 42.2638 93.6456 39.8745 111.759Z" fill="#ECEDED"/>
<path d="M99.9961 174.57C105.626 169.887 110.752 164.709 115.3 159.108C118.544 155.106 121.722 150.883 124.202 146.383C126.532 142.159 128.105 137.76 128.751 133.202C129.493 127.97 128.939 122.775 127.406 117.809C125.865 112.832 123.18 108.81 120.505 104.68C118.17 101.07 113.845 95.6169 115.758 91.1989C115.836 91.0206 115.915 90.8529 116 90.6945C114.856 89.944 113.777 89.1108 112.774 88.2029C112.3 88.6294 111.848 89.0796 111.422 89.5484C110.697 90.3459 110.045 91.1989 109.47 92.0941C106.523 96.6745 105.565 102.435 107.412 107.536L107.421 107.559L107.451 107.648C108.162 109.567 109.289 111.356 110.382 113.104C110.687 113.594 110.995 114.081 111.292 114.574C112.273 116.2 113.108 117.898 113.788 119.651C114.462 121.397 114.992 123.187 115.374 125.008C117.383 134.439 115.167 144.181 111.563 153.039C108.51 160.538 104.388 167.663 99.9961 174.57Z" fill="url(#paint1_linear_119_404)"/>
<path d="M124.874 27.9125C75.8144 23.8364 30.5801 54.3969 17.8208 100.831C24.7418 103.689 31.3332 106.88 37.5652 110.42C40.1499 92.4295 48.008 75.2684 60.974 61.5799C66.3436 55.901 72.5201 50.9222 79.3348 46.7796L79.3405 46.7743L79.5559 46.6436C91.2309 39.5755 104.551 35.1721 118.421 33.7949C120.541 33.5815 122.668 33.4375 124.799 33.3631C125.287 32.3411 125.84 31.3442 126.475 30.3962C126.978 29.6435 127.54 28.9358 128.157 28.2756C127.075 28.0842 125.97 28.0036 124.874 27.9125Z" fill="url(#paint2_linear_119_404)"/>
</g>
<defs>
<filter id="filter0_f_119_404" x="0" y="-2" width="194" height="206" filterUnits="userSpaceOnUse" color-interpolation-filters="sRGB">
<feFlood flood-opacity="0" result="BackgroundImageFix"/>
<feBlend mode="normal" in="SourceGraphic" in2="BackgroundImageFix" result="shape"/>
<feGaussianBlur stdDeviation="1" result="effect1_foregroundBlur_119_404"/>
</filter>
<linearGradient id="paint0_linear_119_404" x1="176.021" y1="158.395" x2="43.4836" y2="19.2398" gradientUnits="userSpaceOnUse">
<stop stop-color="white"/>
<stop offset="1" stop-color="#B1B3B4"/>
</linearGradient>
<linearGradient id="paint1_linear_119_404" x1="117.531" y1="89.0261" x2="86.53" y2="163.305" gradientUnits="userSpaceOnUse">
<stop stop-color="white"/>
<stop offset="1" stop-color="#B1B3B4"/>
</linearGradient>
<linearGradient id="paint2_linear_119_404" x1="114.399" y1="41.2742" x2="43.8731" y2="109.495" gradientUnits="userSpaceOnUse">
<stop stop-color="#C4C6C8"/>
<stop offset="1" stop-color="white"/>
</linearGradient>
<clipPath id="clip0_119_404">
<rect width="190" height="202" fill="white" transform="translate(2)"/>
</clipPath>
</defs>
</svg>
